<mxfile host="65bd71144e">
    <diagram id="ESKCpq1kPreq4rdOoigo" name="ページ1">
        <mxGraphModel dx="1406" dy="795" grid="1" gridSize="10" guides="1" tooltips="1" connect="1" arrows="1" fold="1" page="1" pageScale="1" pageWidth="827" pageHeight="1169" math="0" shadow="0">
            <root>
                <mxCell id="0"/>
                <mxCell id="1" parent="0"/>
                <mxCell id="6" value="" style="shape=folder;fontStyle=1;spacingTop=10;tabWidth=40;tabHeight=14;tabPosition=left;html=1;align=center;" parent="1" vertex="1">
                    <mxGeometry x="120" y="80" width="250" height="300" as="geometry"/>
                </mxCell>
                <mxCell id="13" value="UI" style="text;html=1;strokeColor=none;fillColor=none;align=center;verticalAlign=middle;whiteSpace=wrap;rounded=0;" parent="1" vertex="1">
                    <mxGeometry x="165" y="110" width="150" height="30" as="geometry"/>
                </mxCell>
                <mxCell id="18" value="" style="shape=folder;fontStyle=1;spacingTop=10;tabWidth=40;tabHeight=14;tabPosition=left;html=1;align=center;" parent="1" vertex="1">
                    <mxGeometry x="450" y="80" width="250" height="300" as="geometry"/>
                </mxCell>
                <mxCell id="19" value="infrastracture" style="text;html=1;strokeColor=none;fillColor=none;align=center;verticalAlign=middle;whiteSpace=wrap;rounded=0;" parent="1" vertex="1">
                    <mxGeometry x="500" y="110" width="150" height="30" as="geometry"/>
                </mxCell>
                <mxCell id="21" value="page" style="html=1;" parent="1" vertex="1">
                    <mxGeometry x="185" y="290" width="110" height="50" as="geometry"/>
                </mxCell>
                <mxCell id="24" value="" style="shape=folder;fontStyle=1;spacingTop=10;tabWidth=40;tabHeight=14;tabPosition=left;html=1;align=center;" parent="1" vertex="1">
                    <mxGeometry x="139" y="430" width="550" height="180" as="geometry"/>
                </mxCell>
                <mxCell id="25" value="application" style="text;html=1;strokeColor=none;fillColor=none;align=center;verticalAlign=middle;whiteSpace=wrap;rounded=0;" parent="1" vertex="1">
                    <mxGeometry x="330" y="470" width="150" height="30" as="geometry"/>
                </mxCell>
                <mxCell id="27" value="" style="shape=folder;fontStyle=1;spacingTop=10;tabWidth=40;tabHeight=14;tabPosition=left;html=1;align=center;" parent="1" vertex="1">
                    <mxGeometry x="139" y="680" width="550" height="180" as="geometry"/>
                </mxCell>
                <mxCell id="28" value="domain" style="text;html=1;strokeColor=none;fillColor=none;align=center;verticalAlign=middle;whiteSpace=wrap;rounded=0;" parent="1" vertex="1">
                    <mxGeometry x="330" y="710" width="150" height="30" as="geometry"/>
                </mxCell>
                <mxCell id="29" value="アーキテクチャ" style="text;html=1;strokeColor=none;fillColor=none;align=center;verticalAlign=middle;whiteSpace=wrap;rounded=0;fontStyle=1" parent="1" vertex="1">
                    <mxGeometry x="330" y="30" width="150" height="30" as="geometry"/>
                </mxCell>
                <mxCell id="31" value="" style="endArrow=open;endFill=1;endSize=12;html=1;" parent="1" source="21" target="32" edge="1">
                    <mxGeometry width="160" relative="1" as="geometry">
                        <mxPoint x="250" y="370" as="sourcePoint"/>
                        <mxPoint x="580" y="420" as="targetPoint"/>
                        <Array as="points"/>
                    </mxGeometry>
                </mxCell>
                <mxCell id="32" value="usecase" style="html=1;" parent="1" vertex="1">
                    <mxGeometry x="210" y="510" width="110" height="50" as="geometry"/>
                </mxCell>
                <mxCell id="33" value="interface" style="html=1;" parent="1" vertex="1">
                    <mxGeometry x="510" y="520" width="110" height="50" as="geometry"/>
                </mxCell>
                <mxCell id="34" value="layout" style="html=1;" parent="1" vertex="1">
                    <mxGeometry x="185" y="180" width="110" height="50" as="geometry"/>
                </mxCell>
                <mxCell id="35" value="model" style="html=1;" parent="1" vertex="1">
                    <mxGeometry x="210" y="760" width="110" height="50" as="geometry"/>
                </mxCell>
                <mxCell id="36" value="repository" style="html=1;" parent="1" vertex="1">
                    <mxGeometry x="520" y="220" width="110" height="50" as="geometry"/>
                </mxCell>
                <mxCell id="37" value="" style="endArrow=open;endFill=1;endSize=12;html=1;exitX=0.5;exitY=1;exitDx=0;exitDy=0;" edge="1" parent="1" source="34" target="21">
                    <mxGeometry width="160" relative="1" as="geometry">
                        <mxPoint x="255.340909090909" y="220" as="sourcePoint"/>
                        <mxPoint x="274.659090909091" y="390" as="targetPoint"/>
                        <Array as="points"/>
                    </mxGeometry>
                </mxCell>
                <mxCell id="38" value="" style="endArrow=open;endFill=1;endSize=12;html=1;" edge="1" parent="1" target="35">
                    <mxGeometry width="160" relative="1" as="geometry">
                        <mxPoint x="255.340909090909" y="560" as="sourcePoint"/>
                        <mxPoint x="274.659090909091" y="730" as="targetPoint"/>
                        <Array as="points"/>
                    </mxGeometry>
                </mxCell>
                <mxCell id="39" value="" style="endArrow=none;dashed=1;html=1;exitX=0.5;exitY=0;exitDx=0;exitDy=0;" edge="1" parent="1" source="33" target="36">
                    <mxGeometry width="50" height="50" relative="1" as="geometry">
                        <mxPoint x="550" y="520" as="sourcePoint"/>
                        <mxPoint x="600" y="470" as="targetPoint"/>
                        <Array as="points"/>
                    </mxGeometry>
                </mxCell>
                <mxCell id="40" value="" style="endArrow=open;endFill=1;endSize=12;html=1;exitX=0;exitY=0.75;exitDx=0;exitDy=0;entryX=1;entryY=0.5;entryDx=0;entryDy=0;" edge="1" parent="1" source="36" target="21">
                    <mxGeometry width="160" relative="1" as="geometry">
                        <mxPoint x="330" y="410" as="sourcePoint"/>
                        <mxPoint x="490" y="410" as="targetPoint"/>
                    </mxGeometry>
                </mxCell>
                <mxCell id="41" value="DI" style="text;html=1;align=center;verticalAlign=middle;resizable=0;points=[];autosize=1;strokeColor=none;fillColor=none;" vertex="1" parent="1">
                    <mxGeometry x="390" y="255" width="40" height="30" as="geometry"/>
                </mxCell>
            </root>
        </mxGraphModel>
    </diagram>
</mxfile>